<svg xmlns="http://www.w3.org/2000/svg" width="11.995" height="12" viewBox="0 0 11.995 12"><defs><style>.a{fill:#2e6fa9;}</style></defs><path class="a" d="M11.588,3.488,10.161,2.062a1.515,1.515,0,0,0-2.14,0L1.246,8.838a.51.51,0,0,0-.13.224L.046,12.985a.509.509,0,0,0,.619.619l3.923-1.07a.51.51,0,0,0,.224-.13l6.776-6.776a1.527,1.527,0,0,0,0-2.14ZM4.455,11.334l-.713-.713L8.735,5.628l.713.713ZM1.86,10.165l1.624,1.624-.56.153L1.708,10.726Zm1.169-.258-.713-.713L7.309,4.2l.713.713ZM1.4,11.847l.4.4-.552.151Zm9.472-6.932-.713.713-2.14-2.14.713-.713a.5.5,0,0,1,.713,0L10.874,4.2A.509.509,0,0,1,10.874,4.915Z" transform="translate(-0.03 -1.62)"/></svg>